<?xml version="1.0" encoding="iso-8859-1"?>
<!-- Generator: Adobe Illustrator 16.0.0, SVG Export Plug-In . SVG Version: 6.00 Build 0)  -->
<!DOCTYPE svg PUBLIC "-//W3C//DTD SVG 1.1//EN" "http://www.w3.org/Graphics/SVG/1.1/DTD/svg11.dtd">
<svg version="1.1" id="Layer_1" xmlns="http://www.w3.org/2000/svg" xmlns:xlink="http://www.w3.org/1999/xlink" x="0px" y="0px"
	 width="24px" height="24px" viewBox="0 0 24 24" style="enable-background:new 0 0 24 24;" xml:space="preserve">
<path style="fill:#0A808F;" d="M23.613,17.638h-0.18L15.793,7.315c-0.003-0.004-0.007-0.008-0.01-0.011
	c-0.003-0.005-0.007-0.009-0.011-0.014c-0.002-0.003-0.004-0.005-0.007-0.008c-0.001-0.002-0.004-0.004-0.006-0.007
	c-0.005-0.005-0.01-0.009-0.014-0.014c-0.003-0.002-0.005-0.004-0.007-0.006c-0.003-0.002-0.005-0.004-0.008-0.006
	c-0.005-0.004-0.011-0.009-0.016-0.013c-0.002-0.001-0.004-0.003-0.006-0.004v0l0,0c-0.003-0.002-0.006-0.004-0.008-0.005
	c-0.006-0.004-0.012-0.007-0.017-0.011c-0.006-0.003-0.012-0.007-0.017-0.01s-0.011-0.006-0.017-0.009
	c-0.003-0.001-0.006-0.003-0.009-0.005c-0.004-0.001-0.007-0.002-0.01-0.004c-0.006-0.002-0.011-0.004-0.016-0.006
	c-0.004-0.001-0.007-0.003-0.01-0.004c-0.004-0.001-0.008-0.002-0.013-0.004c-0.002,0-0.004-0.001-0.007-0.002
	c-0.003,0-0.005-0.001-0.008-0.002c0,0-0.001,0-0.001,0c-0.003,0-0.005-0.001-0.007-0.002c-0.005-0.001-0.01-0.002-0.015-0.003
	s-0.011-0.002-0.015-0.003c-0.003,0-0.005-0.001-0.008-0.001c-0.005,0-0.009-0.001-0.014-0.001c-0.006,0-0.012-0.001-0.017-0.001
	c-0.003,0-0.005,0-0.008,0c-0.004,0-0.008,0-0.012,0c-0.006,0-0.013,0-0.019,0c-0.003,0-0.005,0-0.008,0s-0.007,0-0.01,0.001h-0.001
	c-0.006,0-0.012,0.001-0.018,0.001c-0.004,0-0.006,0.001-0.009,0.001c-0.001,0-0.003,0-0.004,0c-0.003,0-0.006,0.001-0.009,0.001
	c-0.005,0.001-0.01,0.002-0.016,0.003c-0.007,0.002-0.015,0.004-0.021,0.006c-0.005,0.001-0.009,0.002-0.014,0.004
	c-0.007,0.002-0.016,0.005-0.022,0.008c-0.005,0.001-0.009,0.003-0.013,0.005c-0.002,0.001-0.006,0.002-0.009,0.003
	c-0.004,0.002-0.008,0.005-0.013,0.007c-0.004,0.002-0.009,0.004-0.013,0.007c-0.007,0.003-0.013,0.008-0.019,0.012
	c-0.005,0.003-0.009,0.005-0.013,0.008c-0.003,0.002-0.007,0.004-0.01,0.006l0,0c0,0-0.001,0.001-0.001,0.002
	c-0.002,0.001-0.005,0.003-0.007,0.005c-0.005,0.003-0.009,0.007-0.013,0.011c-0.003,0.002-0.006,0.004-0.009,0.007
	c-0.002,0.002-0.005,0.005-0.007,0.007c-0.005,0.004-0.01,0.009-0.014,0.013c-0.002,0.002-0.004,0.004-0.006,0.006
	c-0.003,0.002-0.005,0.005-0.008,0.008c-0.004,0.005-0.008,0.01-0.012,0.015c-0.002,0.003-0.005,0.006-0.008,0.01l-1.853,2.503
	l-3.013-4.07c-0.002-0.004-0.006-0.008-0.009-0.012c-0.003-0.004-0.007-0.009-0.011-0.013c-0.002-0.003-0.004-0.005-0.007-0.008
	c-0.002-0.002-0.004-0.004-0.007-0.006c-0.004-0.005-0.009-0.01-0.014-0.014c-0.002-0.002-0.004-0.004-0.006-0.006
	c-0.002-0.002-0.005-0.004-0.008-0.007c-0.005-0.004-0.01-0.008-0.015-0.013c-0.005-0.003-0.01-0.007-0.015-0.011
	c-0.005-0.004-0.01-0.007-0.016-0.01c-0.005-0.004-0.011-0.007-0.017-0.01c-0.005-0.003-0.01-0.006-0.016-0.008
	c-0.003-0.002-0.007-0.004-0.01-0.005c-0.003-0.001-0.006-0.002-0.009-0.003c-0.005-0.002-0.01-0.004-0.015-0.006
	c-0.003-0.001-0.007-0.003-0.01-0.004c-0.004-0.001-0.008-0.002-0.012-0.003c-0.002,0-0.005-0.002-0.007-0.002
	c-0.002-0.001-0.005-0.001-0.007-0.002c-0.003,0-0.006-0.002-0.009-0.002c-0.004-0.001-0.009-0.002-0.014-0.003
	c-0.005-0.001-0.01-0.002-0.016-0.003c-0.002,0-0.005-0.001-0.008-0.001c-0.004,0-0.008-0.001-0.013-0.001
	c-0.006,0-0.012-0.001-0.018-0.001c-0.002,0-0.005,0-0.007,0c-0.003,0-0.007,0-0.011,0c-0.006,0-0.013,0-0.019,0
	c-0.002,0-0.005,0-0.007,0c-0.003,0-0.006,0-0.009,0c0,0-0.001,0-0.001,0c-0.006,0-0.013,0.001-0.019,0.001
	c-0.003,0-0.005,0-0.008,0.001c-0.001,0-0.002,0-0.003,0.001c-0.003,0-0.005,0.001-0.008,0.001C9.915,5.596,9.909,5.597,9.903,5.598
	C9.896,5.6,9.89,5.601,9.883,5.603C9.877,5.604,9.872,5.606,9.867,5.608c-0.003,0-0.005,0.001-0.008,0.002c0,0,0,0-0.001,0
	C9.854,5.612,9.851,5.614,9.847,5.615c-0.005,0.002-0.01,0.004-0.015,0.006C9.83,5.623,9.827,5.623,9.825,5.625
	C9.821,5.626,9.817,5.628,9.813,5.63c-0.005,0.003-0.01,0.005-0.015,0.008C9.792,5.642,9.786,5.646,9.78,5.649
	c-0.004,0.003-0.009,0.006-0.014,0.01C9.764,5.66,9.761,5.662,9.758,5.664l0,0c0,0-0.001,0-0.001,0.001
	C9.755,5.667,9.753,5.668,9.75,5.67c-0.005,0.004-0.01,0.008-0.015,0.012C9.733,5.684,9.731,5.686,9.729,5.688
	C9.726,5.69,9.724,5.693,9.722,5.695C9.717,5.7,9.712,5.705,9.708,5.709C9.706,5.711,9.704,5.713,9.702,5.715
	C9.7,5.718,9.697,5.72,9.695,5.723c-0.004,0.005-0.009,0.01-0.013,0.016C9.68,5.742,9.677,5.745,9.675,5.748l-8.801,11.89H0.387
	C0.173,17.638,0,17.811,0,18.026c0,0.213,0.173,0.386,0.387,0.386h0.682l0,0h0h5.363h0.001h0.001h12.472h0.001l0,0h4.332l0,0l0,0
	h0.374c0.214,0,0.387-0.173,0.387-0.386C24,17.811,23.827,17.638,23.613,17.638z M19.103,17.638l-4.433-5.987l0.961-3.255
	l6.841,9.242H19.103L19.103,17.638z M13,10.695c0.002,0.001,0.002,0.002,0.003,0.003l5.137,6.94H6.95l3.189-10.81L13,10.695z
	 M14.49,9.528l-0.396,1.345l-0.299-0.404L14.49,9.528z M8.999,7.961l-2.855,9.677H1.836L8.999,7.961z"/>
</svg>
