<?xml version="1.0" encoding="iso-8859-1"?>
<!-- Generator: Adobe Illustrator 16.0.0, SVG Export Plug-In . SVG Version: 6.00 Build 0)  -->
<!DOCTYPE svg PUBLIC "-//W3C//DTD SVG 1.1//EN" "http://www.w3.org/Graphics/SVG/1.1/DTD/svg11.dtd">
<svg version="1.1" id="Layer_1" xmlns="http://www.w3.org/2000/svg" xmlns:xlink="http://www.w3.org/1999/xlink" x="0px" y="0px"
	 width="24px" height="20.771px" viewBox="0 0 24 20.771" style="enable-background:new 0 0 24 20.771;" xml:space="preserve">
<path style="fill:#0A808F;" d="M5.884,2.27C5.779,2.261,5.675,2.295,5.595,2.364c-0.08,0.069-0.129,0.167-0.137,0.272L5.326,4.57
	C5.318,4.679,5.357,4.787,5.431,4.866C5.506,4.946,5.61,4.992,5.72,4.992h12.546c0.109,0,0.213-0.045,0.288-0.125
	s0.113-0.187,0.105-0.296l-0.133-1.934c-0.007-0.105-0.056-0.204-0.136-0.272c-0.081-0.069-0.184-0.103-0.29-0.094
	C14.047,2.6,9.938,2.6,5.884,2.27z M17.843,4.202H6.142l0.077-1.114c3.834,0.292,7.715,0.292,11.548,0L17.843,4.202z"/>
<path style="fill:#0A808F;" d="M23.936,0.179C23.863,0.067,23.739,0,23.605,0h-0.015c-0.021,0-0.041,0.001-0.062,0.005
	c-7.655,1.214-15.418,1.214-23.073,0C0.313-0.018,0.17,0.039,0.083,0.153c-0.088,0.114-0.107,0.268-0.049,0.4
	c0,0,0.711,1.623,0.759,1.732C0.845,2.41,0.959,2.503,1.1,2.523C2.004,2.654,2.93,2.771,3.859,2.871L3.768,4.202H1.935
	c-0.218,0-0.394,0.177-0.394,0.395v1.604c0,0.218,0.176,0.395,0.394,0.395h1.668L2.794,18.402H2.539
	c-0.326,0-0.592,0.266-0.592,0.593v0.986c-0.218,0-0.394,0.177-0.394,0.396c0,0.218,0.176,0.395,0.394,0.395h3.944
	c0.218,0,0.395-0.177,0.395-0.395c0-0.219-0.177-0.396-0.395-0.396v-0.986c0-0.327-0.266-0.593-0.592-0.593H5.167L5.978,6.596h12.03
	l0.812,11.807h-0.113c-0.326,0-0.591,0.266-0.591,0.593v0.986c-0.218,0-0.394,0.177-0.394,0.396c0,0.218,0.176,0.395,0.394,0.395
	h3.944c0.218,0,0.395-0.177,0.395-0.395c0-0.219-0.177-0.396-0.395-0.396v-0.986c0-0.327-0.265-0.593-0.591-0.593h-0.275
	l-0.81-11.807h1.668c0.218,0,0.395-0.177,0.395-0.395V4.597c0-0.218-0.177-0.395-0.395-0.395h-1.832l-0.091-1.332
	c0.919-0.099,1.837-0.214,2.733-0.343c0.149-0.006,0.285-0.096,0.346-0.236l0.761-1.738C24.021,0.431,24.009,0.291,23.936,0.179z
	 M2.736,19.981v-0.79h2.367v0.79H2.736z M21.27,19.981h-2.366v-0.79h0.337h0h0h1.58h0h0.001h0.446V19.981L21.27,19.981z
	 M22.572,1.771c-0.954,0.135-1.93,0.254-2.906,0.354c-0.211,0.021-0.367,0.208-0.353,0.42l0.143,2.079
	c0.014,0.207,0.186,0.368,0.394,0.368h1.806v0.814h-1.696c-0.109,0-0.214,0.045-0.289,0.125c-0.074,0.08-0.112,0.187-0.105,0.296
	L20.4,18.402h-0.791l-0.84-12.229c-0.014-0.207-0.186-0.368-0.394-0.368H5.609c-0.207,0-0.379,0.161-0.393,0.368l-0.84,12.229H3.585
	L4.419,6.228c0.007-0.109-0.031-0.216-0.105-0.296S4.135,5.806,4.026,5.806H2.33V4.992h1.806c0.208,0,0.379-0.161,0.394-0.368
	l0.143-2.079c0.015-0.212-0.142-0.398-0.354-0.42c-0.971-0.1-1.941-0.218-2.889-0.352c-0.009-0.022-0.02-0.045-0.031-0.07
	L1.044,0.894c7.274,1.082,14.639,1.081,21.914-0.002L22.572,1.771z"/>
</svg>
