<?xml version="1.0" encoding="iso-8859-1"?>
<!-- Generator: Adobe Illustrator 16.0.0, SVG Export Plug-In . SVG Version: 6.00 Build 0)  -->
<!DOCTYPE svg PUBLIC "-//W3C//DTD SVG 1.1//EN" "http://www.w3.org/Graphics/SVG/1.1/DTD/svg11.dtd">
<svg version="1.1" id="Layer_1" xmlns="http://www.w3.org/2000/svg" xmlns:xlink="http://www.w3.org/1999/xlink" x="0px" y="0px"
	 width="24px" height="24px" viewBox="0 0 24 24" style="enable-background:new 0 0 24 24;" xml:space="preserve">
<path style="fill:#0A808F;" d="M16.784,5.241l-0.392-0.034l0,0l-0.44-0.039l0.333-3.807c0.003,0,0.007,0,0.011,0
	c0.218,0,0.403-0.167,0.422-0.388c0.021-0.233-0.151-0.439-0.385-0.46L15.937,0.48l0,0l-5.07-0.444l0,0l-0.396-0.035
	c-0.233-0.02-0.439,0.152-0.459,0.386c-0.02,0.225,0.139,0.423,0.359,0.457L10.038,4.65L9.206,4.578
	C8.973,4.557,8.767,4.73,8.747,4.963c-0.02,0.223,0.137,0.421,0.354,0.456L8.767,9.234c-0.22-0.002-0.408,0.165-0.427,0.387
	s0.137,0.419,0.353,0.455l-0.336,3.835C8.137,13.91,7.95,14.077,7.93,14.299c-0.019,0.222,0.136,0.419,0.352,0.455l-0.333,3.79
	c-0.218-0.001-0.405,0.166-0.424,0.387c-0.02,0.222,0.135,0.419,0.351,0.456l-0.33,3.764H7.253c-0.234,0-0.424,0.19-0.424,0.425
	S7.019,24,7.253,24h2.398c0,0,0,0,0,0h0h3.423l0,0l0,0h1.712l0,0h0.001h0.955c0.234,0,0.424-0.19,0.424-0.425
	s-0.189-0.425-0.424-0.425H15.25l0.271-3.095c0.001,0,0.004,0,0.006,0c0.218,0,0.403-0.166,0.422-0.387
	c0.02-0.223-0.138-0.421-0.354-0.455l0.331-3.79c0.003,0,0.005,0,0.007,0c0.217,0,0.402-0.167,0.422-0.388
	c0.02-0.223-0.137-0.421-0.355-0.456l0.336-3.834c0.002,0,0.004,0,0.006,0c0.218,0,0.403-0.167,0.423-0.387
	c0.019-0.223-0.138-0.421-0.355-0.456l0.334-3.815c0.002,0,0.004,0,0.006,0c0.218,0,0.403-0.167,0.423-0.388
	C17.189,5.468,17.018,5.262,16.784,5.241z M13.732,16.06c-0.234-0.021-0.439,0.152-0.46,0.386l-0.222,2.544l-0.863-0.075
	l0.223-2.545c0.021-0.232-0.152-0.438-0.386-0.459s-0.439,0.152-0.459,0.386l-0.222,2.543l-0.845-0.073l0.222-2.544
	c0.021-0.233-0.152-0.439-0.386-0.46c-0.233-0.02-0.439,0.152-0.459,0.386l-0.222,2.544l-0.858-0.075l0.332-3.787l5.953,0.521
	l-0.331,3.787l-0.854-0.074l0.222-2.545C14.138,16.286,13.965,16.081,13.732,16.06z M14.301,14.431l0.225-2.577
	c0.021-0.234-0.152-0.439-0.386-0.46s-0.439,0.152-0.46,0.386l-0.225,2.576l-0.862-0.075l0.225-2.576
	c0.021-0.233-0.151-0.439-0.386-0.459c-0.232-0.021-0.438,0.152-0.459,0.386l-0.226,2.576l-0.844-0.073l0.225-2.577
	c0.021-0.233-0.152-0.439-0.385-0.46c-0.233-0.021-0.439,0.152-0.459,0.386l-0.226,2.576l-0.856-0.075l0.336-3.832l4.675,0.41l0,0
	l0,0l1.275,0.112l-0.334,3.832L14.301,14.431z M14.709,9.753l0.222-2.544c0.021-0.233-0.151-0.439-0.385-0.459
	c-0.233-0.021-0.439,0.152-0.46,0.386l-0.223,2.543l-0.862-0.075l0.223-2.544c0.021-0.233-0.152-0.439-0.386-0.46
	c-0.233-0.02-0.438,0.152-0.459,0.386L12.156,9.53l-0.845-0.074l0.222-2.544c0.021-0.233-0.152-0.439-0.385-0.46
	s-0.439,0.152-0.459,0.386l-0.222,2.543L9.612,9.307l0.334-3.813l3.239,0.284l0.582,0.051l0,0l0,0l2.13,0.187l-0.333,3.813
	L14.709,9.753z M12.423,1.864c-0.233-0.021-0.438,0.152-0.46,0.386l-0.217,2.48l-0.857-0.075l0.327-3.735l4.224,0.37l-0.326,3.735
	L14.269,4.95l0.217-2.48c0.021-0.233-0.152-0.439-0.386-0.46s-0.439,0.152-0.459,0.386l-0.218,2.48l-0.831-0.073l0.217-2.48
	C12.829,2.09,12.656,1.884,12.423,1.864z M13.538,23.151l0.174-1.994c0.021-0.233-0.152-0.438-0.386-0.459s-0.438,0.152-0.459,0.385
	l-0.181,2.068h-0.878l0.196-2.142c0.021-0.233-0.15-0.44-0.384-0.462c-0.233-0.021-0.439,0.15-0.461,0.384l-0.203,2.22h-0.842
	l0.201-2.291c0.02-0.233-0.152-0.439-0.386-0.46c-0.233-0.021-0.439,0.152-0.459,0.386l-0.207,2.365H8.397l0.324-3.688l1.281,0.112
	l0,0l0,0l4.673,0.409l-0.277,3.167H13.538L13.538,23.151z"/>
</svg>
