<?xml version="1.0" encoding="iso-8859-1"?>
<!-- Generator: Adobe Illustrator 16.0.0, SVG Export Plug-In . SVG Version: 6.00 Build 0)  -->
<!DOCTYPE svg PUBLIC "-//W3C//DTD SVG 1.1//EN" "http://www.w3.org/Graphics/SVG/1.1/DTD/svg11.dtd">
<svg version="1.1" id="Layer_1" xmlns="http://www.w3.org/2000/svg" xmlns:xlink="http://www.w3.org/1999/xlink" x="0px" y="0px"
	 width="22px" height="22px" viewBox="0 0 22 22" style="enable-background:new 0 0 22 22;" xml:space="preserve">
<g>
	<g>
		<path style="fill:none;stroke:#E8F1F0;stroke-width:1.5;stroke-linecap:round;stroke-linejoin:round;stroke-miterlimit:10;" d="
			M21.25,15.271c0,0,0,1.346,0,2.99c0,1.644-1.53,2.989-3.401,2.989H4.152c-1.871,0-3.402-1.53-3.402-3.401V4.15
			c0-1.871,1.531-3.401,3.402-3.401h13.696c1.871,0,3.401,1.2,3.401,2.667c0,1.466,0,2.667,0,2.667"/>
	</g>
	
		<line style="fill:none;stroke:#E8F1F0;stroke-width:1.5;stroke-linecap:round;stroke-linejoin:round;stroke-miterlimit:10;" x1="3.987" y1="10.995" x2="12.612" y2="11.019"/>
	
		<polygon style="fill:none;stroke:#E8F1F0;stroke-width:1.5;stroke-linecap:round;stroke-linejoin:round;stroke-miterlimit:10;" points="
		12.612,11 12.612,6.108 16.847,8.554 21.085,11 16.847,13.446 12.612,15.893 	"/>
</g>
</svg>
