<?xml version="1.0" encoding="iso-8859-1"?>
<!-- Generator: Adobe Illustrator 16.0.0, SVG Export Plug-In . SVG Version: 6.00 Build 0)  -->
<!DOCTYPE svg PUBLIC "-//W3C//DTD SVG 1.1//EN" "http://www.w3.org/Graphics/SVG/1.1/DTD/svg11.dtd">
<svg version="1.1" id="Layer_1" xmlns="http://www.w3.org/2000/svg" xmlns:xlink="http://www.w3.org/1999/xlink" x="0px" y="0px"
	 width="24px" height="24px" viewBox="0 0 24 24" style="enable-background:new 0 0 24 24;" xml:space="preserve">
<path style="fill:#0A808F;" d="M23.578,16.988H23.35l-1.12-1.514c-0.079-0.106-0.205-0.17-0.339-0.17h-1.575
	c0.536-0.547,1.421-1.39,2.342-2.02c0.148-0.102,0.216-0.285,0.169-0.457c-0.046-0.172-0.196-0.297-0.374-0.311
	c-1.292-0.099-2.283,0.067-3.002,0.297c0.403-0.598,0.901-1.268,1.515-1.978c0.094-0.109,0.126-0.257,0.086-0.395
	c-0.041-0.138-0.149-0.245-0.287-0.285c-2.623-0.76-5.354,0.039-6.274,0.36c-1.583-2.215-3.898-3.75-6.555-4.337
	C7.765,6.143,7.589,6.213,7.493,6.358C7.396,6.502,7.398,6.69,7.498,6.833c0.548,0.783,1.005,1.615,1.367,2.483
	C7.613,8.524,6.17,8.06,4.686,7.988c-0.173-0.008-0.334,0.09-0.405,0.249C4.21,8.395,4.244,8.581,4.366,8.704
	C4.71,9.052,5.026,9.421,5.313,9.81C4.135,9.444,2.875,9.38,1.665,9.636c-0.17,0.036-0.3,0.172-0.329,0.344
	c-0.028,0.171,0.052,0.342,0.201,0.43c1.465,0.866,2.615,2.142,3.329,3.69l-0.198-0.043c-0.03-0.008-0.061-0.011-0.092-0.011H1.693
	c-0.187,0-0.352,0.123-0.404,0.303l-0.771,2.64H0.421C0.188,16.988,0,17.177,0,17.408c0,0.232,0.188,0.422,0.421,0.422h0.411h0.001
	c0,0,0,0,0,0h22.744c0.233,0,0.422-0.189,0.422-0.422C24,17.177,23.812,16.988,23.578,16.988z M19.552,14.88l-0.576-0.963
	c0.585-0.313,1.354-0.509,2.209-0.567C20.503,13.919,19.915,14.502,19.552,14.88z M18.824,15.305h-0.796
	c0.007-0.011,0.015-0.022,0.021-0.033c0.018-0.036,0.039-0.08,0.063-0.131c0.068-0.138,0.16-0.326,0.281-0.557L18.824,15.305z
	 M13.908,15.305h-3.264l3.264-3.262V15.305L13.908,15.305z M14.751,12.028c0.787,0.808,1.374,1.542,1.757,2.06
	c0.527,0.716,0.789,1.186,0.795,1.197c0.004,0.007,0.008,0.013,0.012,0.02h-2.563V12.028L14.751,12.028z M19.886,10.813
	c-1.152,1.42-1.857,2.646-2.254,3.408c-0.448-0.672-1.271-1.786-2.515-3.022C16.073,10.907,17.983,10.459,19.886,10.813z
	 M13.783,10.977l-3.076,3.074c-0.052-2.398-0.708-4.709-1.915-6.76C10.795,7.962,12.533,9.242,13.783,10.977z M9.868,14.361
	c0,0.229-0.006,0.463-0.019,0.699c-0.003,0.054,0.006,0.105,0.022,0.154l-1.986-0.441c0.039-0.033,0.071-0.073,0.096-0.12
	l1.604-3.018C9.772,12.523,9.868,13.437,9.868,14.361z M9.188,10.587l-1.384,2.605c-0.378-1.555-1.087-2.993-2.084-4.235
	C6.985,9.201,8.183,9.761,9.188,10.587z M2.913,10.327c0.981-0.036,1.968,0.154,2.872,0.56l-0.51,2.166
	C4.674,11.992,3.874,11.069,2.913,10.327z M6.442,11.772c0.318,0.735,0.55,1.512,0.688,2.317c0.021,0.125,0.042,0.263,0.062,0.42
	c0.005,0.041,0.017,0.08,0.033,0.116l-1.381-0.308L6.442,11.772z M2.009,14.888H4.53l5.601,1.248
	c0.03,0.007,0.061,0.011,0.092,0.011h11.456l0.623,0.842H1.396L2.009,14.888z"/>
</svg>
