<?xml version="1.0" encoding="iso-8859-1"?>
<!-- Generator: Adobe Illustrator 16.0.0, SVG Export Plug-In . SVG Version: 6.00 Build 0)  -->
<!DOCTYPE svg PUBLIC "-//W3C//DTD SVG 1.1//EN" "http://www.w3.org/Graphics/SVG/1.1/DTD/svg11.dtd">
<svg version="1.1" id="Layer_1" xmlns="http://www.w3.org/2000/svg" xmlns:xlink="http://www.w3.org/1999/xlink" x="0px" y="0px"
	 width="24px" height="24px" viewBox="0 0 24 24" style="enable-background:new 0 0 24 24;" xml:space="preserve">
<g>
	<g>
		<g>
			<path style="fill:#088190;" d="M17.987,15.282c-1.186,0-2.149-0.966-2.149-2.15c0-1.186,0.964-2.15,2.149-2.15
				s2.151,0.965,2.151,2.15C20.139,14.316,19.173,15.282,17.987,15.282z M17.987,11.675c-0.802,0-1.456,0.653-1.456,1.457
				c0,0.803,0.654,1.456,1.456,1.456c0.804,0,1.457-0.653,1.457-1.456C19.444,12.329,18.791,11.675,17.987,11.675z"/>
		</g>
		<g>
			<path style="fill:#088190;" d="M17.987,19.144c-0.698,0-1.284-0.485-1.434-1.146c-0.344-0.103-0.677-0.239-0.991-0.412
				c-0.562,0.354-1.35,0.273-1.825-0.203c-0.494-0.494-0.565-1.252-0.203-1.826c-0.173-0.315-0.311-0.647-0.412-0.99
				c-0.66-0.15-1.146-0.737-1.146-1.435c0-0.698,0.486-1.285,1.146-1.435c0.102-0.344,0.239-0.676,0.412-0.991
				c-0.362-0.573-0.291-1.333,0.203-1.826c0.476-0.476,1.264-0.557,1.825-0.204c0.315-0.172,0.647-0.309,0.991-0.411
				c0.149-0.66,0.735-1.146,1.434-1.146c0.699,0,1.287,0.486,1.436,1.146c0.344,0.102,0.677,0.239,0.992,0.411
				c0.561-0.354,1.349-0.273,1.824,0.204c0.494,0.494,0.565,1.253,0.204,1.826c0.172,0.314,0.309,0.646,0.41,0.991
				C23.515,11.846,24,12.433,24,13.132c0,0.698-0.485,1.285-1.146,1.435c-0.102,0.344-0.238,0.677-0.41,0.99
				c0.362,0.573,0.29,1.332-0.204,1.826c-0.277,0.276-0.646,0.43-1.038,0.43c-0.001,0-0.001,0-0.001,0
				c-0.28,0-0.552-0.079-0.785-0.227c-0.315,0.173-0.648,0.31-0.992,0.412C19.274,18.658,18.687,19.144,17.987,19.144z
				 M15.496,16.74l0.221,0.136c0.383,0.231,0.796,0.403,1.23,0.509l0.252,0.063l0.012,0.259c0.02,0.417,0.361,0.744,0.776,0.744
				c0.416,0,0.758-0.327,0.777-0.744l0.013-0.259l0.252-0.063c0.434-0.105,0.848-0.276,1.23-0.51l0.222-0.135l0.191,0.175
				c0.299,0.271,0.791,0.263,1.074-0.023c0.296-0.294,0.306-0.767,0.024-1.075l-0.175-0.192l0.135-0.223
				c0.232-0.381,0.403-0.794,0.51-1.229l0.063-0.25l0.258-0.013c0.419-0.021,0.745-0.362,0.745-0.777
				c0-0.417-0.326-0.757-0.744-0.777l-0.259-0.013l-0.063-0.251c-0.106-0.434-0.277-0.848-0.51-1.23l-0.135-0.222l0.175-0.192
				c0.281-0.309,0.271-0.782-0.023-1.077c-0.284-0.285-0.776-0.294-1.075-0.022l-0.191,0.175L20.26,9.388
				c-0.383-0.232-0.796-0.404-1.23-0.51l-0.252-0.062l-0.013-0.26c-0.02-0.417-0.361-0.744-0.777-0.744
				c-0.415,0-0.757,0.328-0.776,0.745l-0.012,0.259l-0.252,0.062c-0.434,0.106-0.848,0.277-1.23,0.51l-0.221,0.134l-0.192-0.174
				c-0.298-0.271-0.792-0.262-1.076,0.022c-0.294,0.294-0.304,0.767-0.022,1.077l0.175,0.191l-0.136,0.222
				c-0.232,0.383-0.403,0.797-0.51,1.229l-0.061,0.252l-0.259,0.013c-0.417,0.02-0.744,0.361-0.744,0.777
				c0,0.415,0.327,0.756,0.744,0.777l0.259,0.013l0.061,0.251c0.106,0.432,0.276,0.845,0.51,1.229l0.136,0.222l-0.175,0.192
				c-0.281,0.31-0.271,0.782,0.022,1.076c0.284,0.284,0.778,0.295,1.076,0.023L15.496,16.74z"/>
		</g>
	</g>
	<g>
		<g>
			<path style="fill:#088190;" d="M7.074,9.855c-1.372,0-2.488-1.116-2.488-2.488c0-1.372,1.116-2.488,2.488-2.488
				c1.371,0,2.487,1.116,2.487,2.488C9.561,8.739,8.445,9.855,7.074,9.855z M7.074,5.573c-0.99,0-1.794,0.805-1.794,1.794
				s0.805,1.794,1.794,1.794c0.989,0,1.793-0.805,1.793-1.794S8.063,5.573,7.074,5.573z"/>
		</g>
		<g>
			<path style="fill:#088190;" d="M7.074,14.439c-0.812,0-1.491-0.573-1.648-1.347c-0.429-0.124-0.843-0.295-1.235-0.512
				c-0.644,0.426-1.565,0.342-2.118-0.212c-0.574-0.573-0.648-1.46-0.212-2.118C1.643,9.858,1.472,9.445,1.348,9.015
				C0.575,8.857,0,8.178,0,7.367c0-0.811,0.575-1.491,1.348-1.648c0.124-0.43,0.295-0.843,0.512-1.234
				C1.424,3.827,1.499,2.939,2.072,2.366c0.553-0.553,1.474-0.638,2.119-0.211c0.392-0.217,0.805-0.388,1.234-0.512
				c0.157-0.773,0.837-1.348,1.648-1.348c0.811,0,1.491,0.574,1.647,1.348c0.43,0.124,0.843,0.295,1.234,0.512
				c0.644-0.426,1.565-0.341,2.119,0.212c0.574,0.574,0.649,1.461,0.212,2.119c0.217,0.392,0.389,0.805,0.512,1.234
				c0.774,0.156,1.347,0.836,1.347,1.647s-0.573,1.491-1.347,1.648c-0.124,0.429-0.295,0.842-0.512,1.234
				c0.437,0.658,0.363,1.545-0.212,2.119c-0.316,0.317-0.739,0.492-1.187,0.492l0,0c-0.334,0-0.656-0.098-0.931-0.28
				c-0.392,0.217-0.805,0.389-1.234,0.512C8.564,13.866,7.885,14.439,7.074,14.439z M4.122,11.732l0.222,0.135
				c0.46,0.279,0.958,0.486,1.479,0.613l0.252,0.062l0.012,0.259c0.025,0.53,0.459,0.945,0.988,0.945
				c0.528,0,0.961-0.415,0.987-0.945l0.012-0.259l0.252-0.062c0.521-0.127,1.019-0.333,1.479-0.613l0.222-0.134l0.192,0.174
				c0.379,0.345,1.005,0.333,1.366-0.029c0.375-0.374,0.388-0.974,0.03-1.367l-0.175-0.192l0.135-0.222
				c0.28-0.46,0.486-0.958,0.613-1.478l0.062-0.251l0.259-0.012c0.53-0.026,0.946-0.46,0.946-0.988c0-0.528-0.416-0.961-0.945-0.987
				l-0.259-0.012l-0.062-0.252c-0.127-0.52-0.333-1.018-0.613-1.478l-0.135-0.222l0.175-0.192c0.358-0.393,0.345-0.993-0.029-1.367
				c-0.362-0.362-0.988-0.374-1.367-0.029l-0.192,0.175L9.803,2.867C9.344,2.588,8.846,2.382,8.324,2.254L8.072,2.193L8.061,1.934
				c-0.025-0.53-0.459-0.945-0.987-0.945c-0.528,0-0.962,0.416-0.988,0.946L6.074,2.193L5.822,2.254
				c-0.521,0.127-1.02,0.334-1.479,0.613L4.122,3.002L3.93,2.828C3.551,2.482,2.924,2.494,2.563,2.856
				C2.189,3.229,2.177,3.831,2.534,4.224l0.174,0.192L2.573,4.638C2.294,5.097,2.088,5.594,1.96,6.116L1.899,6.367L1.64,6.379
				C1.109,6.405,0.694,6.839,0.694,7.367c0,0.528,0.415,0.962,0.946,0.988l0.259,0.012L1.96,8.619
				c0.127,0.521,0.333,1.019,0.613,1.479l0.135,0.222l-0.175,0.191c-0.357,0.393-0.344,0.994,0.03,1.367
				c0.361,0.362,0.987,0.374,1.367,0.029L4.122,11.732z"/>
		</g>
	</g>
	<g>
		<g>
			<path style="fill:#088190;" d="M9.214,20.548c-1.004,0-1.822-0.817-1.822-1.821s0.817-1.821,1.822-1.821
				c1.005,0,1.822,0.817,1.822,1.821S10.219,20.548,9.214,20.548z M9.214,17.599c-0.622,0-1.128,0.506-1.128,1.128
				s0.506,1.128,1.128,1.128s1.128-0.506,1.128-1.128S9.836,17.599,9.214,17.599z"/>
		</g>
		<g>
			<path style="fill:#088190;" d="M9.214,23.706c-0.587,0-1.084-0.4-1.226-0.95c-0.262-0.08-0.515-0.185-0.756-0.313
				c-0.481,0.282-1.139,0.206-1.539-0.195c-0.416-0.415-0.484-1.051-0.194-1.539c-0.129-0.241-0.234-0.493-0.313-0.756
				c-0.55-0.142-0.951-0.639-0.951-1.227s0.401-1.084,0.951-1.226c0.08-0.263,0.184-0.515,0.313-0.756
				c-0.289-0.488-0.221-1.124,0.194-1.539c0.401-0.401,1.059-0.478,1.54-0.194c0.241-0.129,0.494-0.233,0.755-0.313
				c0.142-0.55,0.639-0.951,1.226-0.951c0.588,0,1.085,0.401,1.227,0.951c0.262,0.08,0.515,0.185,0.755,0.313
				c0.481-0.283,1.139-0.207,1.54,0.194c0.417,0.417,0.484,1.051,0.195,1.54c0.129,0.242,0.234,0.494,0.313,0.755
				c0.549,0.142,0.95,0.638,0.95,1.226s-0.401,1.085-0.95,1.227c-0.08,0.262-0.185,0.514-0.313,0.756
				c0.289,0.488,0.221,1.123-0.195,1.539c-0.238,0.239-0.556,0.371-0.894,0.371l0,0c-0.229,0-0.451-0.062-0.646-0.176
				c-0.241,0.129-0.494,0.233-0.755,0.313C10.299,23.306,9.802,23.706,9.214,23.706z M7.169,21.6l0.221,0.135
				c0.306,0.187,0.638,0.323,0.988,0.409l0.251,0.062l0.013,0.259c0.015,0.308,0.266,0.549,0.572,0.549
				c0.307,0,0.558-0.241,0.573-0.549l0.012-0.259l0.252-0.062c0.348-0.085,0.68-0.223,0.988-0.41l0.222-0.135l0.192,0.176
				c0.22,0.199,0.583,0.193,0.793-0.018c0.217-0.217,0.224-0.564,0.017-0.793l-0.175-0.192l0.134-0.221
				c0.188-0.31,0.326-0.642,0.41-0.988l0.061-0.252l0.259-0.012c0.308-0.015,0.548-0.267,0.548-0.573
				c0-0.306-0.24-0.558-0.548-0.571l-0.259-0.013l-0.061-0.252c-0.084-0.347-0.223-0.679-0.41-0.987l-0.134-0.222l0.175-0.191
				c0.207-0.229,0.2-0.577-0.018-0.794c-0.209-0.21-0.572-0.217-0.792-0.017l-0.192,0.175l-0.222-0.135
				c-0.307-0.188-0.64-0.324-0.988-0.41l-0.252-0.062l-0.012-0.258c-0.015-0.309-0.266-0.55-0.573-0.55
				c-0.306,0-0.557,0.241-0.572,0.55l-0.013,0.258l-0.251,0.062c-0.35,0.086-0.682,0.224-0.988,0.41l-0.222,0.135l-0.192-0.175
				c-0.22-0.2-0.583-0.193-0.793,0.017c-0.216,0.217-0.223,0.564-0.016,0.794l0.175,0.191l-0.135,0.222
				c-0.187,0.307-0.324,0.638-0.409,0.986l-0.062,0.253l-0.259,0.013c-0.308,0.014-0.549,0.266-0.549,0.571
				c0,0.307,0.242,0.559,0.549,0.573l0.259,0.012l0.061,0.252c0.084,0.349,0.222,0.682,0.409,0.987l0.135,0.222l-0.175,0.192
				c-0.208,0.229-0.2,0.577,0.016,0.793c0.21,0.211,0.573,0.217,0.793,0.018L7.169,21.6z"/>
		</g>
	</g>
</g>
</svg>
